HIERARCHY
ROOT Hips
{
	OFFSET -0.001795 -0.223333 0.028219
	CHANNELS 6 Xposition Yposition Zposition Zrotation Yrotation Xrotation 
	JOINT LeftUpLeg
	{
		OFFSET 0.069520 -0.091406 -0.006815
		CHANNELS 3 Zrotation Yrotation Xrotation
		JOINT LeftLeg
		{
			OFFSET 0.034277 -0.375199 -0.004496
			CHANNELS 3 Zrotation Yrotation Xrotation
			JOINT LeftFoot
			{
				OFFSET -0.013596 -0.397961 -0.043693
				CHANNELS 3 Zrotation Yrotation Xrotation
				JOINT LeftToe
				{
					OFFSET 0.026358 -0.055791 0.119288
					CHANNELS 3 Zrotation Yrotation Xrotation
					End Site
					{
						OFFSET 0.000000 0.000000 0.000000
					}
				}
			}
		}
	}
	JOINT RightUpLeg
	{
		OFFSET -0.067670 -0.090522 -0.004320
		CHANNELS 3 Zrotation Yrotation Xrotation
		JOINT RightLeg
		{
			OFFSET -0.038290 -0.382569 -0.008850
			CHANNELS 3 Zrotation Yrotation Xrotation
			JOINT RightFoot
			{
				OFFSET 0.015774 -0.398415 -0.042312
				CHANNELS 3 Zrotation Yrotation Xrotation
				JOINT RightToe
				{
					OFFSET -0.025372 -0.048144 0.123348
					CHANNELS 3 Zrotation Yrotation Xrotation
					End Site
					{
						OFFSET 0.000000 0.000000 0.000000
					}
				}
			}
		}
	}
	JOINT Spine
	{
		OFFSET -0.002533 0.108963 -0.026696
		CHANNELS 3 Zrotation Yrotation Xrotation
		JOINT Spine1
		{
			OFFSET 0.005487 0.135180 0.001092
			CHANNELS 3 Zrotation Yrotation Xrotation
			JOINT Spine2
			{
				OFFSET 0.001457 0.052922 0.025425
				CHANNELS 3 Zrotation Yrotation Xrotation
				JOINT Neck
				{
					OFFSET -0.002778 0.213870 -0.042857
					CHANNELS 3 Zrotation Yrotation Xrotation
					JOINT Head
					{
						OFFSET 0.005152 0.064970 0.051349
						CHANNELS 3 Zrotation Yrotation Xrotation
						End Site
						{
							OFFSET 0.000000 0.000000 0.000000
						}
					}
				}
				JOINT LeftShoulder
				{
					OFFSET 0.078845 0.121749 -0.034090
					CHANNELS 3 Zrotation Yrotation Xrotation
					JOINT LeftArm
					{
						OFFSET 0.090977 0.030469 -0.008868
						CHANNELS 3 Zrotation Yrotation Xrotation
						JOINT LeftForeArm
						{
							OFFSET 0.259612 -0.012772 -0.027456
							CHANNELS 3 Zrotation Yrotation Xrotation
							JOINT LeftHand
							{
								OFFSET 0.249234 0.008986 -0.001171
								CHANNELS 3 Zrotation Yrotation Xrotation
								End Site
								{
									OFFSET 0.000000 0.000000 0.000000
								}
							}
						}
					}
				}
				JOINT RightShoulder
				{
					OFFSET -0.081759 0.118833 -0.038615
					CHANNELS 3 Zrotation Yrotation Xrotation
					JOINT RightArm
					{
						OFFSET -0.096012 0.032551 -0.009143
						CHANNELS 3 Zrotation Yrotation Xrotation
						JOINT RightForeArm
						{
							OFFSET -0.253742 -0.013329 -0.021401
							CHANNELS 3 Zrotation Yrotation Xrotation
							JOINT RightHand
							{
								OFFSET -0.255298 0.007772 -0.005559
								CHANNELS 3 Zrotation Yrotation Xrotation
								End Site
								{
									OFFSET 0.000000 0.000000 0.000000
								}
							}
						}
					}
				}
			}
		}
	}
}
MOTION
Frames: 15
Frame Time: 0.050000
0.000000 0.954444 0.000000 -1.178030 -11.223527 0.403212 4.106685 0.368709 4.703555 -2.305299 0.304003 0.823961 5.161397 12.078304 13.156037 0.000000 0.000000 0.000000 -2.867239 0.019826 1.858946 1.855534 -0.220931 -3.386630 -1.197127 -9.795799 15.510323 0.000000 0.000000 0.000000 6.914547 0.096169 -1.151756 -5.772423 2.230808 -9.508417 -2.035969 5.947848 19.062881 9.085431 -4.742759 -17.630964 0.000000 0.000000 0.000000 -15.466665 -9.582046 3.944409 -56.758886 -2.283251 -7.199728 -11.661331 -42.200569 6.841306 0.000000 0.000000 0.000000 18.330354 0.058721 -1.398713 60.362023 1.657743 -6.634525 20.115268 40.821605 9.264719 0.000000 0.000000 0.000000 
0.000151 0.952820 -0.000425 -1.384913 -12.395312 0.738113 4.413423 0.397411 5.007626 -2.811566 0.386421 0.024738 5.734926 12.901981 12.990025 0.000000 0.000000 0.000000 -2.155393 0.040333 0.973771 0.818551 -0.146316 -2.692552 -0.812575 -9.073165 14.733877 0.000000 0.000000 0.000000 7.078197 0.213577 -2.199836 -6.179280 2.434399 -8.230121 -2.201193 6.454855 18.847079 10.523039 -5.672524 -17.675982 0.000000 0.000000 0.000000 -14.952908 -9.358481 3.833145 -56.696110 -2.034491 -7.288371 -13.860841 -46.791915 8.721722 0.000000 0.000000 0.000000 18.122500 0.073447 -1.397956 60.320681 3.014827 -5.935284 22.707281 44.569014 11.354482 0.000000 0.000000 0.000000 
0.000258 0.952700 -0.001284 -1.021442 -12.070109 0.405139 4.280421 0.367500 4.564837 -3.143310 0.433312 1.104384 5.579472 12.668330 12.849674 0.000000 0.000000 0.000000 -2.054072 0.000185 1.437072 -0.008380 -0.112000 -3.033803 -0.991804 -9.319706 14.678614 0.000000 0.000000 0.000000 7.010866 0.225903 -2.279291 -5.660723 2.190152 -9.025885 -2.733882 6.266554 20.052894 9.706155 -5.244393 -17.463255 0.000000 0.000000 0.000000 -15.386146 -9.176543 3.813697 -55.878794 -2.117322 -7.298695 -17.682507 -50.092457 11.372306 0.000000 0.000000 0.000000 17.419126 1.369720 -0.639768 60.595278 5.884552 -4.627989 26.883339 49.719647 15.003806 0.000000 0.000000 0.000000 
0.000251 0.953392 -0.002326 -1.017418 -12.477839 0.435585 4.550878 0.369423 4.583221 -3.703582 0.521072 0.982109 5.681899 12.816692 13.206696 0.000000 0.000000 0.000000 -2.235034 0.021272 1.332888 0.471964 -0.135521 -2.982947 -1.003947 -9.333865 14.511695 0.000000 0.000000 0.000000 7.266822 0.356675 -3.332470 -5.911912 2.335640 -8.041664 -3.154678 6.836454 20.176271 10.085832 -5.454102 -17.398500 0.000000 0.000000 0.000000 -14.824551 -9.818527 4.030599 -55.954821 -2.165603 -7.279146 -21.753020 -55.887245 15.151653 0.000000 0.000000 0.000000 17.524092 2.979262 0.297791 60.254078 9.072089 -2.991765 31.146083 56.394697 20.037280 0.000000 0.000000 0.000000 
0.000193 0.954171 -0.003750 -0.862048 -12.477024 0.196800 4.159774 0.360392 4.316155 -3.274807 0.460188 1.661451 5.713946 12.871436 13.425734 0.000000 0.000000 0.000000 -2.375709 0.026912 1.374197 0.653969 -0.135941 -2.656693 -1.225627 -9.627426 14.270310 0.000000 0.000000 0.000000 7.126669 0.364059 -3.394760 -5.601459 2.237660 -7.485130 -3.473453 7.161671 19.955261 10.290012 -5.522783 -17.425602 0.000000 0.000000 0.000000 -14.239171 -10.374674 4.193607 -56.025847 -2.660212 -7.033659 -25.207110 -60.284095 18.624039 0.000000 0.000000 0.000000 17.243945 4.003320 0.928876 59.340287 12.838622 -1.036016 38.902697 63.385878 28.406955 0.000000 0.000000 0.000000 
0.000103 0.954917 -0.005407 -0.945669 -12.173841 0.263026 4.440638 0.350779 4.323685 -3.469013 0.485055 1.288667 5.501539 12.564015 13.582988 0.000000 0.000000 0.000000 -2.242312 0.027337 1.208212 0.851009 -0.136178 -2.234506 -1.528447 -9.946796 13.791646 0.000000 0.000000 0.000000 7.200969 0.409060 -3.778593 -5.872014 2.350947 -7.566431 -3.420800 7.941274 20.446570 10.670352 -5.640381 -17.589404 0.000000 0.000000 0.000000 -13.227589 -11.221146 4.392082 -56.164101 -3.546866 -6.686654 -32.867542 -63.742774 24.797617 0.000000 0.000000 0.000000 16.603779 5.609711 2.013860 58.387858 17.025416 1.004860 40.752755 69.721114 33.851702 0.000000 0.000000 0.000000 
0.000101 0.954965 -0.007216 -0.863562 -12.042867 0.097789 4.609603 0.331475 4.083843 -3.826102 0.543697 1.756239 5.413205 12.433297 13.549296 0.000000 0.000000 0.000000 -2.200884 0.031872 1.082911 0.948999 -0.122756 -1.538539 -1.937349 -10.356267 12.935817 0.000000 0.000000 0.000000 6.811648 0.374844 -3.595693 -6.082902 2.451403 -7.396514 -3.178654 8.658736 20.172650 11.387209 -5.926645 -17.975124 0.000000 0.000000 0.000000 -13.016501 -11.947708 4.564989 -55.669621 -3.879776 -6.456861 -39.505351 -66.429300 30.491628 0.000000 0.000000 0.000000 16.310707 7.213915 3.013678 57.080774 21.371057 3.124275 35.764767 73.699489 32.635265 0.000000 0.000000 0.000000 
0.000111 0.955163 -0.008874 -0.971172 -11.800667 0.043959 4.971961 0.299749 3.720111 -4.142495 0.598541 2.289822 5.285968 12.247188 13.483431 0.000000 0.000000 0.000000 -1.820222 0.035538 0.689597 0.703736 -0.081696 -0.751999 -2.283480 -10.873713 12.735806 0.000000 0.000000 0.000000 6.822932 0.397860 -3.788329 -6.796262 2.803816 -6.666682 -3.019843 9.053888 19.896974 11.981881 -6.262996 -17.846240 0.000000 0.000000 0.000000 -12.454026 -12.635706 4.746340 -55.090907 -5.017547 -5.855389 -43.802403 -68.096042 34.361720 0.000000 0.000000 0.000000 15.555463 8.888852 3.966635 55.834273 25.863107 5.270438 24.734877 75.049596 24.779294 0.000000 0.000000 0.000000 
0.000226 0.954873 -0.010387 -0.936652 -11.761869 -0.279886 4.991372 0.310496 3.830079 -4.194204 0.610404 2.533894 5.263437 12.213793 13.352071 0.000000 0.000000 0.000000 -1.856376 0.056950 0.401773 0.628043 -0.048218 0.046947 -2.266399 -10.877813 12.843624 0.000000 0.000000 0.000000 6.645922 0.374171 -3.579942 -7.091844 2.947934 -6.466706 -2.997770 9.911861 19.790527 12.560198 -6.496553 -17.985635 0.000000 0.000000 0.000000 -11.856973 -13.445521 4.927622 -54.915874 -5.793729 -5.483242 -45.067543 -69.463276 35.814268 0.000000 0.000000 0.000000 14.542797 10.764659 5.024133 54.775272 30.658131 7.567322 11.637373 74.287654 14.591607 0.000000 0.000000 0.000000 
0.000299 0.954851 -0.011791 -1.011921 -11.989719 -0.307779 5.204145 0.302709 3.672429 -4.454011 0.661583 2.793260 5.363133 12.355023 13.373717 0.000000 0.000000 0.000000 -1.787893 0.083008 0.007492 0.396358 -0.008790 0.570031 -1.839361 -10.188574 12.901160 0.000000 0.000000 0.000000 6.976016 0.428612 -3.916134 -7.828692 3.284819 -6.213837 -3.057428 10.908135 19.947739 13.442557 -6.989617 -17.970879 0.000000 0.000000 0.000000 -11.502691 -14.281648 5.143268 -54.500664 -6.571893 -5.119373 -43.340962 -71.096187 35.174924 0.000000 0.000000 0.000000 13.246511 12.167058 5.760703 53.705972 35.513826 9.863606 4.264963 73.131407 9.004024 0.000000 0.000000 0.000000 
0.000530 0.954444 -0.013146 -0.942282 -11.964778 -0.699207 5.135696 0.311521 3.719000 -4.437025 0.667937 3.282112 5.365480 12.359234 13.203019 0.000000 0.000000 0.000000 -1.996205 0.095175 -0.044284 0.486522 0.005169 1.122918 -1.704251 -9.969855 12.964207 0.000000 0.000000 0.000000 6.957089 0.398054 -3.580931 -8.559229 3.604409 -6.277000 -3.014888 11.505338 19.922696 13.838414 -7.238653 -17.706860 0.000000 0.000000 0.000000 -10.985391 -15.078518 5.369696 -54.426506 -7.456960 -4.720842 -38.542009 -72.589555 32.059856 0.000000 0.000000 0.000000 11.193784 14.030757 6.485463 53.630908 40.032905 12.397191 -2.138765 71.868473 4.233706 0.000000 0.000000 0.000000 
0.000847 0.954436 -0.014312 -0.931813 -12.064071 -1.014628 5.244267 0.327145 3.881800 -4.656528 0.712272 3.488770 5.374484 12.373805 13.201747 0.000000 0.000000 0.000000 -2.160270 0.091333 0.107535 0.650749 -0.000790 1.351483 -1.520232 -9.618765 12.852468 0.000000 0.000000 0.000000 7.134363 0.402867 -3.487108 -9.175321 3.927677 -5.758249 -3.041740 12.041787 19.735162 14.248688 -7.613708 -17.047347 0.000000 0.000000 0.000000 -10.955452 -15.992119 5.673763 -54.224145 -8.410220 -4.259311 -28.520847 -73.809848 24.651951 0.000000 0.000000 0.000000 9.872098 15.337119 6.959573 53.498821 43.766014 14.548233 -3.510365 71.273433 3.213871 0.000000 0.000000 0.000000 
0.001261 0.954000 -0.015054 -0.945871 -11.992958 -1.166194 5.276992 0.323059 3.803436 -4.691137 0.724688 3.822755 5.364262 12.356582 13.004787 0.000000 0.000000 0.000000 -2.189736 0.097975 0.015305 0.640320 0.014594 1.718893 -1.499402 -9.542929 12.766423 0.000000 0.000000 0.000000 7.144399 0.379516 -3.251441 -9.744946 4.224872 -5.383310 -3.048068 12.206005 19.306338 14.554432 -7.834952 -16.804905 0.000000 0.000000 0.000000 -11.106273 -16.373248 5.784430 -54.140729 -9.381940 -3.765630 -19.622641 -73.429557 17.546076 0.000000 0.000000 0.000000 8.244890 16.608330 7.277509 54.478337 46.704600 16.818752 -1.128868 72.581346 5.005917 0.000000 0.000000 0.000000 
0.001612 0.953762 -0.015431 -0.931173 -12.234436 -1.342710 5.328836 0.327647 3.772864 -4.886261 0.774159 4.222068 5.474385 12.517135 12.977576 0.000000 0.000000 0.000000 -2.230792 0.101850 -0.007367 0.793947 0.009606 1.953366 -1.661270 -9.819729 12.671686 0.000000 0.000000 0.000000 7.195007 0.362121 -3.033780 -10.327708 4.536681 -4.968332 -2.948004 12.459786 18.850615 14.579114 -7.962951 -16.236386 0.000000 0.000000 0.000000 -11.011724 -16.635800 5.855660 -53.816938 -9.463499 -3.667542 -13.344508 -74.634440 12.971638 0.000000 0.000000 0.000000 7.557456 17.625713 7.603663 54.690769 47.926372 17.760197 8.281651 75.732887 12.574085 0.000000 0.000000 0.000000 
0.001856 0.953640 -0.015517 -1.007618 -11.681499 -1.226564 5.492514 0.306603 3.634935 -4.916622 0.766980 4.123622 5.222421 12.139426 12.761768 0.000000 0.000000 0.000000 -2.107098 0.100368 -0.097918 0.912211 -0.002712 1.969099 -2.157634 -10.678000 12.840175 0.000000 0.000000 0.000000 7.038677 0.324282 -2.803428 -10.662333 4.686329 -5.019182 -2.876565 12.534597 18.971568 14.529395 -7.922705 -16.118209 0.000000 0.000000 0.000000 -11.022521 -16.478971 5.719347 -53.116026 -9.045757 -3.812616 -12.470296 -75.371856 12.294609 0.000000 0.000000 0.000000 7.537814 17.837476 7.741754 53.880873 47.090390 16.957088 35.436441 79.596381 36.703940 0.000000 0.000000 0.000000 
